<svg width="616" height="548" viewBox="0 0 616 548" fill="none" xmlns="http://www.w3.org/2000/svg">
<path d="M608.531 470.155C628.253 504.341 603.497 547.073 564.105 547.073H51.3461C11.8788 547.073 -12.763 504.274 6.921 470.155L263.304 25.628C283.036 -8.57366 332.457 -8.51169 352.154 25.628L608.531 470.155ZM307.729 378.25C280.584 378.25 258.578 400.256 258.578 427.401C258.578 454.546 280.584 476.552 307.729 476.552C334.874 476.552 356.88 454.546 356.88 427.401C356.88 400.256 334.874 378.25 307.729 378.25ZM261.064 201.577L268.99 346.894C269.361 353.694 274.984 359.017 281.793 359.017H333.665C340.474 359.017 346.097 353.694 346.468 346.894L354.394 201.577C354.794 194.232 348.946 188.056 341.591 188.056H273.866C266.51 188.056 260.664 194.232 261.064 201.577Z" fill="#FF0000" fill-opacity="0.69"/>
</svg>
