<svg width="38" height="36" viewBox="0 0 38 36" fill="none" xmlns="http://www.w3.org/2000/svg">
<g clip-path="url(#clip0_57_6)">
<path d="M28.5007 8.99205H25.334C25.334 5.67983 22.4998 2.99707 19.0007 2.99707C15.5015 2.99707 12.6673 5.67983 12.6673 8.99205H9.50065C7.75898 8.99205 6.33398 10.3409 6.33398 11.9895V29.9745C6.33398 31.6231 7.75898 32.972 9.50065 32.972H28.5007C30.2423 32.972 31.6673 31.6231 31.6673 29.9745V11.9895C31.6673 10.3409 30.2423 8.99205 28.5007 8.99205ZM19.0007 5.99456C20.7423 5.99456 22.1673 7.34343 22.1673 8.99205H15.834C15.834 7.34343 17.259 5.99456 19.0007 5.99456ZM28.5007 29.9745H9.50065V11.9895H12.6673V14.987C12.6673 15.8113 13.3798 16.4858 14.2507 16.4858C15.1215 16.4858 15.834 15.8113 15.834 14.987V11.9895H22.1673V14.987C22.1673 15.8113 22.8798 16.4858 23.7507 16.4858C24.6215 16.4858 25.334 15.8113 25.334 14.987V11.9895H28.5007V29.9745Z" fill="white"/>
</g>
<defs>
<clipPath id="clip0_57_6">
<rect width="38" height="35.9699" fill="white"/>
</clipPath>
</defs>
</svg>
